<mxfile host="app.diagrams.net" agent="Mozilla/5.0 (Windows NT 10.0; Win64; x64) AppleWebKit/537.36 (KHTML, like Gecko) Chrome/136.0.0.0 Safari/537.36" version="27.0.5">
  <diagram name="Page-1" id="7RlnmVO8MkSD3kDvauyE">
    <mxGraphModel dx="1044" dy="578" grid="1" gridSize="10" guides="1" tooltips="1" connect="1" arrows="1" fold="1" page="1" pageScale="1" pageWidth="850" pageHeight="1100" math="0" shadow="0">
      <root>
        <mxCell id="0" />
        <mxCell id="1" parent="0" />
        <mxCell id="nRxOq64L_bAiv0fBV9K8-11" value="" style="shape=image;imageAspect=0;aspect=fixed;verticalLabelPosition=bottom;verticalAlign=top;image=https://sdmntprwestus.oaiusercontent.com/files/00000000-19f4-6230-8640-075a4ade50f9/raw?se=2025-05-16T06%3A31%3A12Z&amp;sp=r&amp;sv=2024-08-04&amp;sr=b&amp;scid=00000000-0000-0000-0000-000000000000&amp;skoid=b64a43d9-3512-45c2-98b4-dea55d094240&amp;sktid=a48cca56-e6da-484e-a814-9c849652bcb3&amp;skt=2025-05-15T21%3A20%3A45Z&amp;ske=2025-05-16T21%3A20%3A45Z&amp;sks=b&amp;skv=2024-08-04&amp;sig=DqQvsSGa/qWY44Z5NNkwGdNc90l42f%2BcM2ytVFzNqXc%3D;" vertex="1" parent="1">
          <mxGeometry x="81" y="30" width="687.27" height="1029.91" as="geometry" />
        </mxCell>
      </root>
    </mxGraphModel>
  </diagram>
</mxfile>
